<svg class="diagram-root" style="background: #f5f6f6" xmlns="http://www.w3.org/2000/svg" xmlns:xlink="http://www.w3.org/1999/xlink"><style>.diagram-root { font-family: "Helvetica Neue", sans-serif; font-size: 12px; } .t { overflow: visible; } .t-bg { y: 40; fill: #fff;   } .th { fill: #005aa0;   } .tht { fill: #fff; font-size: 14px;  } .tf { fill: #323c46; overflow: visible; } .tf.pk { fill: #005aa0; font-weight: bold; } .tf.fk { font-weight: bold; } .ty { fill: #adb1b5; font-weight: normal; text-anchor: end; } .r { fill: transparent; stroke: #c3c3c3; stroke-width: 1; } .l { stroke: 1; } .i { fill: #c2c7ce; stroke: #c2c7ce; } .i.ix { fill: #afb3b6; stroke: #000; } .fa { fill: transparent; overflow: visible; } .fa .bg.hover { fill: #f7f7f7; } .c { cy: 12; r: 4; stroke: #d2d2dc; fill: #d2d2dc; } .hr { fill: transparent; stroke: #323c46; stroke-opacity: 0.035; stroke-width: 13; } .dc { stroke: #fa5a3c; fill: #fa5a3c; } .x { stroke: white; stroke-width: 1; } .hl .th { fill: #1b9bff; } .hl .tht {  } .fhl .bg { fill: #e7f4ff; } .fhls .bg {  } .r.hl { stroke: #1b9bff; } .dim { opacity: 0.25; }</style><g class="drawing-wrapper" transform="translate(-73, 209) scale(1,1)"><g class="rs"><path d="M 278.73 -122 m -1, 0 a 1,1 0 1,0 2,0 a 1,1 0 1,0 -2,0 M 278.73 -122 m -0.5, 0 a 0.5,0.5 0 1,0 1,0 a 0.5,0.5 0 1,0 -1,0  M278.73 -122 L278.73 -122 290.73 -122 M 278.73 -116 m -1, 0 a 1,1 0 1,0 2,0 a 1,1 0 1,0 -2,0 M 278.73 -116 m -0.5, 0 a 0.5,0.5 0 1,0 1,0 a 0.5,0.5 0 1,0 -1,0  M278.73 -116 L278.73 -116 285.73 -122 278.73 -128 M 278.73 -128 m -1, 0 a 1,1 0 1,0 2,0 a 1,1 0 1,0 -2,0 M 278.73 -128 m -0.5, 0 a 0.5,0.5 0 1,0 1,0 a 0.5,0.5 0 1,0 -1,0  M290.73 -122 Q 325.55 -122, 360.37 -79.5 T 430 -37 M 442 -37 m -1, 0 a 1,1 0 1,0 2,0 a 1,1 0 1,0 -2,0 M 442 -37 m -0.5, 0 a 0.5,0.5 0 1,0 1,0 a 0.5,0.5 0 1,0 -1,0  M442 -37 L442 -37 430 -37 M436 -31 L436 -31 436 -43" id="h3686816811" class="r"></path><path d="M 607.31 -37 m -1, 0 a 1,1 0 1,0 2,0 a 1,1 0 1,0 -2,0 M 607.31 -37 m -0.5, 0 a 0.5,0.5 0 1,0 1,0 a 0.5,0.5 0 1,0 -1,0  M607.31 -37 L607.31 -37 619.31 -37 M 607.31 -31 m -1, 0 a 1,1 0 1,0 2,0 a 1,1 0 1,0 -2,0 M 607.31 -31 m -0.5, 0 a 0.5,0.5 0 1,0 1,0 a 0.5,0.5 0 1,0 -1,0  M607.31 -31 L607.31 -31 614.31 -37 607.31 -43 M 607.31 -43 m -1, 0 a 1,1 0 1,0 2,0 a 1,1 0 1,0 -2,0 M 607.31 -43 m -0.5, 0 a 0.5,0.5 0 1,0 1,0 a 0.5,0.5 0 1,0 -1,0  M619.31 -37 C 669.31 -37, 671.26 167, 616.06 167 M 604.06 167 m -1, 0 a 1,1 0 1,0 2,0 a 1,1 0 1,0 -2,0 M 604.06 167 m -0.5, 0 a 0.5,0.5 0 1,0 1,0 a 0.5,0.5 0 1,0 -1,0  M604.06 167 L604.06 167 616.06 167 M610.06 173 L610.06 173 610.06 161" id="h1544868994" class="r"></path><path d="M 773 -92 m -1, 0 a 1,1 0 1,0 2,0 a 1,1 0 1,0 -2,0 M 773 -92 m -0.5, 0 a 0.5,0.5 0 1,0 1,0 a 0.5,0.5 0 1,0 -1,0  M773 -92 L773 -92 761 -92 M 773 -86 m -1, 0 a 1,1 0 1,0 2,0 a 1,1 0 1,0 -2,0 M 773 -86 m -0.5, 0 a 0.5,0.5 0 1,0 1,0 a 0.5,0.5 0 1,0 -1,0  M773 -86 L773 -86 766 -92 773 -98 M 773 -98 m -1, 0 a 1,1 0 1,0 2,0 a 1,1 0 1,0 -2,0 M 773 -98 m -0.5, 0 a 0.5,0.5 0 1,0 1,0 a 0.5,0.5 0 1,0 -1,0  M761 -92 Q 724.77 -92, 688.53 37.5 T 616.06 167 M 604.06 167 m -1, 0 a 1,1 0 1,0 2,0 a 1,1 0 1,0 -2,0 M 604.06 167 m -0.5, 0 a 0.5,0.5 0 1,0 1,0 a 0.5,0.5 0 1,0 -1,0  M604.06 167 L604.06 167 616.06 167 M610.06 173 L610.06 173 610.06 161" id="h1672048976" class="r"></path><path d="M 604.06 167 m -1, 0 a 1,1 0 1,0 2,0 a 1,1 0 1,0 -2,0 M 604.06 167 m -0.5, 0 a 0.5,0.5 0 1,0 1,0 a 0.5,0.5 0 1,0 -1,0  M604.06 167 L604.06 167 616.06 167 M 604.06 173 m -1, 0 a 1,1 0 1,0 2,0 a 1,1 0 1,0 -2,0 M 604.06 173 m -0.5, 0 a 0.5,0.5 0 1,0 1,0 a 0.5,0.5 0 1,0 -1,0  M604.06 173 L604.06 173 611.06 167 604.06 161 M 604.06 161 m -1, 0 a 1,1 0 1,0 2,0 a 1,1 0 1,0 -2,0 M 604.06 161 m -0.5, 0 a 0.5,0.5 0 1,0 1,0 a 0.5,0.5 0 1,0 -1,0  M616.06 167 Q 663.55 167, 711.03 203 T 806 239 M 818 239 m -1, 0 a 1,1 0 1,0 2,0 a 1,1 0 1,0 -2,0 M 818 239 m -0.5, 0 a 0.5,0.5 0 1,0 1,0 a 0.5,0.5 0 1,0 -1,0  M818 239 L818 239 806 239 M812 245 L812 245 812 233" id="h2543177687" class="r"></path><path d="M 257.04 120 m -1, 0 a 1,1 0 1,0 2,0 a 1,1 0 1,0 -2,0 M 257.04 120 m -0.5, 0 a 0.5,0.5 0 1,0 1,0 a 0.5,0.5 0 1,0 -1,0  M257.04 120 L257.04 120 269.04 120 M 257.04 126 m -1, 0 a 1,1 0 1,0 2,0 a 1,1 0 1,0 -2,0 M 257.04 126 m -0.5, 0 a 0.5,0.5 0 1,0 1,0 a 0.5,0.5 0 1,0 -1,0  M257.04 126 L257.04 126 264.04 120 257.04 114 M 257.04 114 m -1, 0 a 1,1 0 1,0 2,0 a 1,1 0 1,0 -2,0 M 257.04 114 m -0.5, 0 a 0.5,0.5 0 1,0 1,0 a 0.5,0.5 0 1,0 -1,0  M269.04 120 Q 306.78 120, 344.52 156 T 420 192 M 432 192 m -1, 0 a 1,1 0 1,0 2,0 a 1,1 0 1,0 -2,0 M 432 192 m -0.5, 0 a 0.5,0.5 0 1,0 1,0 a 0.5,0.5 0 1,0 -1,0  M432 192 L432 192 420 192 M426 198 L426 198 426 186" id="h624524960" class="r"></path></g><g class="hrs"></g><g class="ts"><svg width="170.73" height="100" x="108" y="-179" id="h475896179" class="t"><rect height="40" width="170.73" class="th"></rect><text x="13" y="25" class="tht">departments</text><rect height="60" width="170.73" class="t-bg"></rect><text x="13" y="61" class="tf pk">dept_no<tspan x="157.73" class="ty">varchar(10)</tspan></text><path d="M7,14A2,2 0 0,1 5,12A2,2 0 0,1 7,10A2,2 0 0,1 9,12A2,2 0 0,1 7,14M12.65,10C11.83,7.67 9.61,6 7, 6A6, 6 0 0, 0 1, 12A6, 6 0 0, 0 7, 18C9.61, 18 11.83, 16.33 12.65, 14H17V18H21V14H23V10H12.65Z" class="i pk" transform="translate(76.37648437499999, 48) scale(0.65)"></path><text x="13" y="86" class="tf">dept_name<tspan x="157.73" class="ty">varchar(50)</tspan></text></svg><svg width="159.86" height="100" x="773" y="-174" id="h2392569220" class="t"><rect height="40" width="159.86" class="th"></rect><text x="13" y="25" class="tht">department_manager</text><rect height="60" width="159.86" class="t-bg"></rect><text x="13" y="61" class="tf">dept_no<tspan x="146.86" class="ty">varchr(10)</tspan></text><text x="13" y="86" class="tf pk">emp_no<tspan x="146.86" class="ty">int</tspan></text><path d="M7,14A2,2 0 0,1 5,12A2,2 0 0,1 7,10A2,2 0 0,1 9,12A2,2 0 0,1 7,14M12.65,10C11.83,7.67 9.61,6 7, 6A6, 6 0 0, 0 1, 12A6, 6 0 0, 0 7, 18C9.61, 18 11.83, 16.33 12.65, 14H17V18H21V14H23V10H12.65Z" class="i pk" transform="translate(114.18617187500001, 73) scale(0.65)"></path></svg><svg width="165.31" height="100" x="442" y="-94" id="h3314321464" class="t"><rect height="40" width="165.31" class="th"></rect><text x="13" y="25" class="tht">employee_department</text><rect height="60" width="165.31" class="t-bg"></rect><text x="13" y="61" class="tf pk">emp_no<tspan x="152.31" class="ty">int</tspan></text><path d="M7,14A2,2 0 0,1 5,12A2,2 0 0,1 7,10A2,2 0 0,1 9,12A2,2 0 0,1 7,14M12.65,10C11.83,7.67 9.61,6 7, 6A6, 6 0 0, 0 1, 12A6, 6 0 0, 0 7, 18C9.61, 18 11.83, 16.33 12.65, 14H17V18H21V14H23V10H12.65Z" class="i pk" transform="translate(119.636171875, 48) scale(0.65)"></path><text x="13" y="86" class="tf">dept_no<tspan x="152.31" class="ty">varchar(10)</tspan></text></svg><svg width="172.06" height="225" x="432" y="110" id="h1639608377" class="t"><rect height="40" width="172.06" class="th"></rect><text x="13" y="25" class="tht">employees</text><rect height="185" width="172.06" class="t-bg"></rect><text x="13" y="61" class="tf pk">emp_no<tspan x="159.06" class="ty">int</tspan></text><path d="M7,14A2,2 0 0,1 5,12A2,2 0 0,1 7,10A2,2 0 0,1 9,12A2,2 0 0,1 7,14M12.65,10C11.83,7.67 9.61,6 7, 6A6, 6 0 0, 0 1, 12A6, 6 0 0, 0 7, 18C9.61, 18 11.83, 16.33 12.65, 14H17V18H21V14H23V10H12.65Z" class="i pk" transform="translate(126.386171875, 48) scale(0.65)"></path><text x="13" y="86" class="tf fk">emp_title_id<tspan x="159.06" class="ty">varchar(10)</tspan></text><text x="13" y="111" class="tf">birth_date<tspan x="159.06" class="ty">date</tspan></text><text x="13" y="136" class="tf">first_name<tspan x="159.06" class="ty">varchar(50)</tspan></text><text x="13" y="161" class="tf">last_name<tspan x="159.06" class="ty">varchar(50)</tspan></text><text x="13" y="186" class="tf">sex<tspan x="159.06" class="ty">varchar(1)</tspan></text><text x="13" y="211" class="tf">hire_date<tspan x="159.06" class="ty">date</tspan></text></svg><svg width="122.04" height="100" x="818" y="182" id="h2472833127" class="t"><rect height="40" width="122.04" class="th"></rect><text x="13" y="25" class="tht">salaries</text><rect height="60" width="122.04" class="t-bg"></rect><text x="13" y="61" class="tf pk">emp_no<tspan x="109.04" class="ty">int</tspan></text><path d="M7,14A2,2 0 0,1 5,12A2,2 0 0,1 7,10A2,2 0 0,1 9,12A2,2 0 0,1 7,14M12.65,10C11.83,7.67 9.61,6 7, 6A6, 6 0 0, 0 1, 12A6, 6 0 0, 0 7, 18C9.61, 18 11.83, 16.33 12.65, 14H17V18H21V14H23V10H12.65Z" class="i pk" transform="translate(76.366171875, 48) scale(0.65)"></path><text x="13" y="86" class="tf">salary<tspan x="109.04" class="ty">dec</tspan></text></svg><svg width="162.04" height="100" x="95" y="63" id="h1006881043" class="t"><rect height="40" width="162.04" class="th"></rect><text x="13" y="25" class="tht">title</text><rect height="60" width="162.04" class="t-bg"></rect><text x="13" y="61" class="tf pk">title_id<tspan x="149.04" class="ty">varchar(10)</tspan></text><path d="M7,14A2,2 0 0,1 5,12A2,2 0 0,1 7,10A2,2 0 0,1 9,12A2,2 0 0,1 7,14M12.65,10C11.83,7.67 9.61,6 7, 6A6, 6 0 0, 0 1, 12A6, 6 0 0, 0 7, 18C9.61, 18 11.83, 16.33 12.65, 14H17V18H21V14H23V10H12.65Z" class="i pk" transform="translate(67.68648437499999, 48) scale(0.65)"></path><text x="13" y="86" class="tf">title<tspan x="149.04" class="ty">varchar(50)</tspan></text></svg></g></g><text class="qdbd-link" x="10" y="20">www.quickdatabasediagrams.com</text></svg>